<?xml version="1.0" encoding="UTF-8" standalone="no"?>
<!DOCTYPE svg PUBLIC "-//W3C//DTD SVG 1.1//EN"
 "http://www.w3.org/Graphics/SVG/1.1/DTD/svg11.dtd">
<!-- Generated by graphviz version 2.38.0 (20140413.2041)
 -->
<!-- Title: state_automaton Pages: 1 -->
<svg width="504pt" height="752pt"
 viewBox="0.00 0.00 504.00 751.61" xmlns="http://www.w3.org/2000/svg" xmlns:xlink="http://www.w3.org/1999/xlink">
<g id="graph0" class="graph" transform="scale(0.531085 0.531085) rotate(0) translate(4 1411.24)">
<title>state_automaton</title>
<polygon fill="white" stroke="none" points="-4,4 -4,-1411.24 945,-1411.24 945,4 -4,4"/>
<!-- __init_q0 -->
<!-- q0 -->
<g id="node2" class="node"><title>q0</title>
<ellipse fill="none" stroke="#00cd00" cx="688" cy="-1383.09" rx="20.2726" ry="20.2726"/>
<ellipse fill="none" stroke="#00cd00" cx="688" cy="-1383.09" rx="24.2973" ry="24.2973"/>
<text text-anchor="middle" x="688" y="-1379.39" font-family="Times New Roman,serif" font-size="14.00">q0</text>
</g>
<!-- __init_q0&#45;&gt;q0 -->
<g id="edge1" class="edge"><title>__init_q0&#45;&gt;q0</title>
<path fill="none" stroke="black" d="M628.188,-1383.09C636.604,-1383.09 645.02,-1383.09 653.436,-1383.09"/>
<polygon fill="black" stroke="black" points="653.701,-1386.59 663.701,-1383.09 653.701,-1379.59 653.701,-1386.59"/>
</g>
<!-- q0&#45;&gt;q0 -->
<g id="edge2" class="edge"><title>q0&#45;&gt;q0</title>
<path fill="none" stroke="#ff0000" d="M710.549,-1391.91C721.009,-1392.88 730.148,-1389.94 730.148,-1383.09 730.148,-1378.6 726.212,-1375.79 720.55,-1374.66"/>
<polygon fill="#ff0000" stroke="#ff0000" points="720.678,-1371.16 710.549,-1374.27 720.404,-1378.16 720.678,-1371.16"/>
<text text-anchor="middle" x="765.148" y="-1379.39" font-family="Times New Roman,serif" font-size="14.00">!remote_rise</text>
</g>
<!-- q1 -->
<g id="node3" class="node"><title>q1</title>
<ellipse fill="none" stroke="#00cd00" cx="660" cy="-1283.8" rx="20.2726" ry="20.2726"/>
<ellipse fill="none" stroke="#00cd00" cx="660" cy="-1283.8" rx="24.2973" ry="24.2973"/>
<text text-anchor="middle" x="660" y="-1280.1" font-family="Times New Roman,serif" font-size="14.00">q1</text>
</g>
<!-- q0&#45;&gt;q1 -->
<g id="edge3" class="edge"><title>q0&#45;&gt;q1</title>
<path fill="none" stroke="#ff0000" d="M701.148,-1362.73C706.919,-1351.72 711.307,-1337.81 706,-1325.94 702.081,-1317.18 695.271,-1309.51 688.073,-1303.24"/>
<polygon fill="#ff0000" stroke="#ff0000" points="690.235,-1300.49 680.23,-1297.01 685.879,-1305.97 690.235,-1300.49"/>
<text text-anchor="middle" x="736" y="-1329.74" font-family="Times New Roman,serif" font-size="14.00">!infra_fall</text>
</g>
<!-- q14 -->
<g id="node8" class="node"><title>q14</title>
<ellipse fill="none" stroke="black" cx="415" cy="-1083.55" rx="24.8972" ry="24.8972"/>
<text text-anchor="middle" x="415" y="-1079.85" font-family="Times New Roman,serif" font-size="14.00">q14</text>
</g>
<!-- q0&#45;&gt;q14 -->
<g id="edge4" class="edge"><title>q0&#45;&gt;q14</title>
<path fill="none" stroke="#00cd00" d="M667.266,-1370.69C658.234,-1366.25 647.36,-1361.6 637,-1358.94 586.053,-1345.87 445.374,-1369.18 401,-1340.94 353.275,-1310.57 332.166,-1281.74 345,-1226.65 354.753,-1184.78 378.698,-1141.06 395.865,-1113.36"/>
<polygon fill="#00cd00" stroke="#00cd00" points="399.013,-1114.93 401.396,-1104.61 393.095,-1111.19 399.013,-1114.93"/>
<text text-anchor="middle" x="369" y="-1230.45" font-family="Times New Roman,serif" font-size="14.00">mod_d1</text>
</g>
<!-- q8 -->
<g id="node18" class="node"><title>q8</title>
<ellipse fill="none" stroke="black" cx="738" cy="-499.378" rx="20.2975" ry="20.2975"/>
<text text-anchor="middle" x="738" y="-495.678" font-family="Times New Roman,serif" font-size="14.00">q8</text>
</g>
<!-- q0&#45;&gt;q8 -->
<g id="edge5" class="edge"><title>q0&#45;&gt;q8</title>
<path fill="none" stroke="#00cd00" d="M711.033,-1375.57C746.893,-1363.84 812,-1335.56 812,-1284.8 812,-1284.8 812,-1284.8 812,-594.224 812,-561.803 784.43,-533.997 762.947,-517.251"/>
<polygon fill="#00cd00" stroke="#00cd00" points="764.904,-514.344 754.792,-511.181 760.724,-519.96 764.904,-514.344"/>
<text text-anchor="middle" x="841" y="-929.26" font-family="Times New Roman,serif" font-size="14.00">mod_dm1</text>
</g>
<!-- q1&#45;&gt;q0 -->
<g id="edge6" class="edge"><title>q1&#45;&gt;q0</title>
<path fill="none" stroke="#ff0000" d="M648.228,-1305.01C643.451,-1315.9 640.085,-1329.44 645,-1340.94 648.368,-1348.83 654.069,-1355.92 660.238,-1361.91"/>
<polygon fill="#ff0000" stroke="#ff0000" points="658.342,-1364.91 668.161,-1368.89 662.966,-1359.65 658.342,-1364.91"/>
<text text-anchor="middle" x="673.5" y="-1329.74" font-family="Times New Roman,serif" font-size="14.00">!infra_rise</text>
</g>
<!-- q1&#45;&gt;q1 -->
<g id="edge7" class="edge"><title>q1&#45;&gt;q1</title>
<path fill="none" stroke="#ff0000" d="M682.549,-1292.62C693.009,-1293.58 702.148,-1290.64 702.148,-1283.8 702.148,-1279.3 698.212,-1276.49 692.55,-1275.36"/>
<polygon fill="#ff0000" stroke="#ff0000" points="692.678,-1271.87 682.549,-1274.97 692.404,-1278.86 692.678,-1271.87"/>
<text text-anchor="middle" x="737.148" y="-1280.1" font-family="Times New Roman,serif" font-size="14.00">!remote_rise</text>
</g>
<!-- q15 -->
<g id="node9" class="node"><title>q15</title>
<ellipse fill="none" stroke="black" cx="541" cy="-1183.95" rx="24.8972" ry="24.8972"/>
<text text-anchor="middle" x="541" y="-1180.25" font-family="Times New Roman,serif" font-size="14.00">q15</text>
</g>
<!-- q1&#45;&gt;q15 -->
<g id="edge8" class="edge"><title>q1&#45;&gt;q15</title>
<path fill="none" stroke="#00cd00" d="M642.292,-1267.04C629.347,-1255.63 611.283,-1239.95 595,-1226.65 586.538,-1219.73 577.163,-1212.39 568.631,-1205.82"/>
<polygon fill="#00cd00" stroke="#00cd00" points="570.514,-1202.85 560.445,-1199.56 566.259,-1208.41 570.514,-1202.85"/>
<text text-anchor="middle" x="636" y="-1230.45" font-family="Times New Roman,serif" font-size="14.00">mod_d1</text>
</g>
<!-- q9 -->
<g id="node19" class="node"><title>q9</title>
<ellipse fill="none" stroke="black" cx="661" cy="-595.224" rx="20.2975" ry="20.2975"/>
<text text-anchor="middle" x="661" y="-591.524" font-family="Times New Roman,serif" font-size="14.00">q9</text>
</g>
<!-- q1&#45;&gt;q9 -->
<g id="edge9" class="edge"><title>q1&#45;&gt;q9</title>
<path fill="none" stroke="#00cd00" d="M662.637,-1259.76C663.202,-1253.86 663.715,-1247.53 664,-1241.65 664.323,-1234.99 664.039,-1233.31 664,-1226.65 663.111,-1074.25 660,-1036.17 660,-883.762 660,-883.762 660,-883.762 660,-685.521 660,-665.492 660.255,-642.937 660.507,-625.507"/>
<polygon fill="#00cd00" stroke="#00cd00" points="664.008,-625.437 660.661,-615.385 657.009,-625.33 664.008,-625.437"/>
<text text-anchor="middle" x="690" y="-929.26" font-family="Times New Roman,serif" font-size="14.00">mod_dm1</text>
</g>
<!-- q10 -->
<g id="node4" class="node"><title>q10</title>
<ellipse fill="none" stroke="black" cx="237" cy="-983.158" rx="24.8972" ry="24.8972"/>
<text text-anchor="middle" x="237" y="-979.458" font-family="Times New Roman,serif" font-size="14.00">q10</text>
</g>
<!-- q10&#45;&gt;q10 -->
<g id="edge10" class="edge"><title>q10&#45;&gt;q10</title>
<path fill="none" stroke="#ff0000" d="M260.277,-992.387C270.691,-993.265 279.698,-990.189 279.698,-983.158 279.698,-978.654 276.002,-975.772 270.607,-974.514"/>
<polygon fill="#ff0000" stroke="#ff0000" points="270.459,-971 260.277,-973.93 270.064,-977.989 270.459,-971"/>
<text text-anchor="middle" x="314.698" y="-979.458" font-family="Times New Roman,serif" font-size="14.00">!remote_rise</text>
</g>
<!-- q11 -->
<g id="node5" class="node"><title>q11</title>
<ellipse fill="none" stroke="black" cx="238" cy="-882.762" rx="24.8972" ry="24.8972"/>
<text text-anchor="middle" x="238" y="-879.062" font-family="Times New Roman,serif" font-size="14.00">q11</text>
</g>
<!-- q10&#45;&gt;q11 -->
<g id="edge11" class="edge"><title>q10&#45;&gt;q11</title>
<path fill="none" stroke="#ff0000" d="M217.685,-967.469C205.847,-956.545 194.014,-940.915 200,-925.46 202.614,-918.71 206.886,-912.382 211.641,-906.795"/>
<polygon fill="#ff0000" stroke="#ff0000" points="214.508,-908.856 218.815,-899.177 209.412,-904.057 214.508,-908.856"/>
<text text-anchor="middle" x="227" y="-929.26" font-family="Times New Roman,serif" font-size="14.00">!infra_fall</text>
</g>
<!-- q16 -->
<g id="node10" class="node"><title>q16</title>
<ellipse fill="none" stroke="black" cx="197" cy="-499.378" rx="24.8972" ry="24.8972"/>
<text text-anchor="middle" x="197" y="-495.678" font-family="Times New Roman,serif" font-size="14.00">q16</text>
</g>
<!-- q10&#45;&gt;q16 -->
<g id="edge12" class="edge"><title>q10&#45;&gt;q16</title>
<path fill="none" stroke="#00cd00" d="M212.506,-979.076C166.33,-971.75 71,-948.756 71,-883.762 71,-883.762 71,-883.762 71,-594.224 71,-570.227 68.8481,-559.825 85,-542.076 104.917,-520.19 137.406,-509.748 162.275,-504.792"/>
<polygon fill="#00cd00" stroke="#00cd00" points="163.178,-508.186 172.409,-502.986 161.95,-501.295 163.178,-508.186"/>
<text text-anchor="middle" x="95" y="-728.469" font-family="Times New Roman,serif" font-size="14.00">mod_d0</text>
</g>
<!-- q11&#45;&gt;q10 -->
<g id="edge13" class="edge"><title>q11&#45;&gt;q10</title>
<path fill="none" stroke="#ff0000" d="M248.959,-905.102C253.103,-915.645 256.321,-928.617 254,-940.46 253.318,-943.941 252.343,-947.498 251.201,-950.995"/>
<polygon fill="#ff0000" stroke="#ff0000" points="247.844,-949.984 247.645,-960.577 254.406,-952.42 247.844,-949.984"/>
<text text-anchor="middle" x="283.5" y="-929.26" font-family="Times New Roman,serif" font-size="14.00">!infra_rise</text>
</g>
<!-- q11&#45;&gt;q11 -->
<g id="edge14" class="edge"><title>q11&#45;&gt;q11</title>
<path fill="none" stroke="#ff0000" d="M261.277,-891.991C271.691,-892.87 280.698,-889.794 280.698,-882.762 280.698,-878.258 277.002,-875.377 271.607,-874.119"/>
<polygon fill="#ff0000" stroke="#ff0000" points="271.459,-870.605 261.277,-873.534 271.064,-877.594 271.459,-870.605"/>
<text text-anchor="middle" x="315.698" y="-879.062" font-family="Times New Roman,serif" font-size="14.00">!remote_rise</text>
</g>
<!-- q17 -->
<g id="node11" class="node"><title>q17</title>
<ellipse fill="none" stroke="black" cx="237" cy="-782.367" rx="24.8972" ry="24.8972"/>
<text text-anchor="middle" x="237" y="-778.667" font-family="Times New Roman,serif" font-size="14.00">q17</text>
</g>
<!-- q11&#45;&gt;q17 -->
<g id="edge15" class="edge"><title>q11&#45;&gt;q17</title>
<path fill="none" stroke="#00cd00" d="M219.933,-865.684C213.267,-858.576 206.492,-849.656 203,-840.065 198.767,-828.437 204.129,-816.547 211.756,-806.678"/>
<polygon fill="#00cd00" stroke="#00cd00" points="214.595,-808.749 218.534,-798.914 209.321,-804.145 214.595,-808.749"/>
<text text-anchor="middle" x="227" y="-828.865" font-family="Times New Roman,serif" font-size="14.00">mod_d0</text>
</g>
<!-- q12 -->
<g id="node6" class="node"><title>q12</title>
<ellipse fill="none" stroke="black" cx="236" cy="-307.686" rx="24.8972" ry="24.8972"/>
<text text-anchor="middle" x="236" y="-303.986" font-family="Times New Roman,serif" font-size="14.00">q12</text>
</g>
<!-- q12&#45;&gt;q10 -->
<g id="edge16" class="edge"><title>q12&#45;&gt;q10</title>
<path fill="none" stroke="#ff0000" d="M260.891,-308.384C331.105,-308.035 528.763,-310.68 577,-350.384 595.822,-365.876 594,-378.155 594,-402.532 594,-596.224 594,-596.224 594,-596.224 594,-787.35 355.141,-924.024 268.181,-967.449"/>
<polygon fill="#ff0000" stroke="#ff0000" points="266.489,-964.381 259.063,-971.937 269.58,-970.661 266.489,-964.381"/>
<text text-anchor="middle" x="616.5" y="-637.173" font-family="Times New Roman,serif" font-size="14.00">!top_rise</text>
</g>
<!-- q12&#45;&gt;q12 -->
<g id="edge17" class="edge"><title>q12&#45;&gt;q12</title>
<path fill="none" stroke="#ff0000" d="M259.277,-316.915C269.691,-317.794 278.698,-314.718 278.698,-307.686 278.698,-303.182 275.002,-300.301 269.607,-299.043"/>
<polygon fill="#ff0000" stroke="#ff0000" points="269.459,-295.529 259.277,-298.458 269.064,-302.518 269.459,-295.529"/>
<text text-anchor="middle" x="313.698" y="-303.986" font-family="Times New Roman,serif" font-size="14.00">!remote_rise</text>
</g>
<!-- q13 -->
<g id="node7" class="node"><title>q13</title>
<ellipse fill="none" stroke="black" cx="228" cy="-207.291" rx="24.8972" ry="24.8972"/>
<text text-anchor="middle" x="228" y="-203.591" font-family="Times New Roman,serif" font-size="14.00">q13</text>
</g>
<!-- q12&#45;&gt;q13 -->
<g id="edge18" class="edge"><title>q12&#45;&gt;q13</title>
<path fill="none" stroke="#ff0000" d="M256.511,-293.473C270.653,-282.571 285.635,-266.297 278,-249.988 273.543,-240.468 265.726,-232.362 257.578,-225.899"/>
<polygon fill="#ff0000" stroke="#ff0000" points="259.582,-223.029 249.432,-219.992 255.473,-228.696 259.582,-223.029"/>
<text text-anchor="middle" x="308" y="-253.788" font-family="Times New Roman,serif" font-size="14.00">!infra_fall</text>
</g>
<!-- q2 -->
<g id="node12" class="node"><title>q2</title>
<ellipse fill="none" stroke="black" cx="307" cy="-403.532" rx="20.2975" ry="20.2975"/>
<text text-anchor="middle" x="307" y="-399.832" font-family="Times New Roman,serif" font-size="14.00">q2</text>
</g>
<!-- q12&#45;&gt;q2 -->
<g id="edge19" class="edge"><title>q12&#45;&gt;q2</title>
<path fill="none" stroke="#00cd00" d="M256.085,-322.333C265.814,-329.735 277.076,-339.573 285,-350.384 290.286,-357.596 294.594,-366.27 297.951,-374.456"/>
<polygon fill="#00cd00" stroke="#00cd00" points="294.772,-375.946 301.576,-384.067 301.322,-373.475 294.772,-375.946"/>
<text text-anchor="middle" x="318" y="-354.184" font-family="Times New Roman,serif" font-size="14.00">mod_d0</text>
</g>
<!-- q13&#45;&gt;q11 -->
<g id="edge20" class="edge"><title>q13&#45;&gt;q11</title>
<path fill="none" stroke="#ff0000" d="M204.563,-215.555C186.951,-222.073 163.32,-233.224 148,-249.988 113.342,-287.915 104,-305.508 104,-356.884 104,-500.378 104,-500.378 104,-500.378 104,-657.024 119.493,-704.512 198,-840.065 201.871,-846.749 207.032,-853.184 212.357,-858.916"/>
<polygon fill="#ff0000" stroke="#ff0000" points="210.094,-861.605 219.614,-866.253 215.071,-856.682 210.094,-861.605"/>
<text text-anchor="middle" x="130.5" y="-545.876" font-family="Times New Roman,serif" font-size="14.00">!top_rise</text>
</g>
<!-- q13&#45;&gt;q12 -->
<g id="edge21" class="edge"><title>q13&#45;&gt;q12</title>
<path fill="none" stroke="#ff0000" d="M219.439,-230.688C216.525,-241.134 214.554,-253.72 217,-264.988 217.807,-268.706 218.975,-272.489 220.342,-276.183"/>
<polygon fill="#ff0000" stroke="#ff0000" points="217.217,-277.782 224.31,-285.652 223.673,-275.076 217.217,-277.782"/>
<text text-anchor="middle" x="245.5" y="-253.788" font-family="Times New Roman,serif" font-size="14.00">!infra_rise</text>
</g>
<!-- q13&#45;&gt;q13 -->
<g id="edge22" class="edge"><title>q13&#45;&gt;q13</title>
<path fill="none" stroke="#ff0000" d="M251.277,-216.519C261.691,-217.398 270.698,-214.322 270.698,-207.291 270.698,-202.786 267.002,-199.905 261.607,-198.647"/>
<polygon fill="#ff0000" stroke="#ff0000" points="261.459,-195.133 251.277,-198.062 261.064,-202.122 261.459,-195.133"/>
<text text-anchor="middle" x="305.698" y="-203.591" font-family="Times New Roman,serif" font-size="14.00">!remote_rise</text>
</g>
<!-- q3 -->
<g id="node13" class="node"><title>q3</title>
<ellipse fill="none" stroke="black" cx="299" cy="-111.445" rx="20.2975" ry="20.2975"/>
<text text-anchor="middle" x="299" y="-107.745" font-family="Times New Roman,serif" font-size="14.00">q3</text>
</g>
<!-- q13&#45;&gt;q3 -->
<g id="edge23" class="edge"><title>q13&#45;&gt;q3</title>
<path fill="none" stroke="#00cd00" d="M248.085,-192.644C257.814,-185.242 269.076,-175.404 277,-164.593 282.286,-157.381 286.594,-148.707 289.951,-140.521"/>
<polygon fill="#00cd00" stroke="#00cd00" points="293.322,-141.502 293.576,-130.91 286.772,-139.031 293.322,-141.502"/>
<text text-anchor="middle" x="310" y="-153.393" font-family="Times New Roman,serif" font-size="14.00">mod_d0</text>
</g>
<!-- q14&#45;&gt;q0 -->
<g id="edge24" class="edge"><title>q14&#45;&gt;q0</title>
<path fill="none" stroke="#00cd00" d="M420.563,-1107.79C429.44,-1140.79 449.532,-1201.67 485,-1241.65 535.765,-1298.87 614.431,-1344.58 657.408,-1367"/>
<polygon fill="#00cd00" stroke="#00cd00" points="656.026,-1370.23 666.52,-1371.69 659.226,-1364 656.026,-1370.23"/>
<text text-anchor="middle" x="509" y="-1230.45" font-family="Times New Roman,serif" font-size="14.00">mod_d0</text>
</g>
<!-- q14&#45;&gt;q10 -->
<g id="edge25" class="edge"><title>q14&#45;&gt;q10</title>
<path fill="none" stroke="#ff0000" d="M393.529,-1070.68C362.038,-1053.28 303.185,-1020.74 267.303,-1000.91"/>
<polygon fill="#ff0000" stroke="#ff0000" points="268.715,-997.691 258.27,-995.916 265.329,-1003.82 268.715,-997.691"/>
<text text-anchor="middle" x="372" y="-1029.66" font-family="Times New Roman,serif" font-size="14.00">!bottom_fall</text>
</g>
<!-- q14&#45;&gt;q14 -->
<g id="edge26" class="edge"><title>q14&#45;&gt;q14</title>
<path fill="none" stroke="#ff0000" d="M438.277,-1092.78C448.691,-1093.66 457.698,-1090.58 457.698,-1083.55 457.698,-1079.05 454.002,-1076.17 448.607,-1074.91"/>
<polygon fill="#ff0000" stroke="#ff0000" points="448.459,-1071.4 438.277,-1074.33 448.064,-1078.38 448.459,-1071.4"/>
<text text-anchor="middle" x="492.698" y="-1079.85" font-family="Times New Roman,serif" font-size="14.00">!remote_rise</text>
</g>
<!-- q14&#45;&gt;q15 -->
<g id="edge27" class="edge"><title>q14&#45;&gt;q15</title>
<path fill="none" stroke="#ff0000" d="M424.323,-1106.68C430.067,-1118.18 438.376,-1131.78 449,-1141.25 465.755,-1156.19 488.754,-1166.61 507.565,-1173.3"/>
<polygon fill="#ff0000" stroke="#ff0000" points="506.647,-1176.69 517.24,-1176.55 508.875,-1170.05 506.647,-1176.69"/>
<text text-anchor="middle" x="476" y="-1130.05" font-family="Times New Roman,serif" font-size="14.00">!infra_fall</text>
</g>
<!-- q15&#45;&gt;q1 -->
<g id="edge28" class="edge"><title>q15&#45;&gt;q1</title>
<path fill="none" stroke="#00cd00" d="M536.14,-1208.17C535.137,-1219.29 536.057,-1232.2 543,-1241.65 561.916,-1267.38 598.184,-1277.1 625.35,-1280.74"/>
<polygon fill="#00cd00" stroke="#00cd00" points="625.298,-1284.25 635.625,-1281.88 626.075,-1277.3 625.298,-1284.25"/>
<text text-anchor="middle" x="567" y="-1230.45" font-family="Times New Roman,serif" font-size="14.00">mod_d0</text>
</g>
<!-- q15&#45;&gt;q11 -->
<g id="edge29" class="edge"><title>q15&#45;&gt;q11</title>
<path fill="none" stroke="#ff0000" d="M559.689,-1167.44C566.858,-1160.3 574.221,-1151.2 578,-1141.25 591.197,-1106.5 548.272,-1070.09 537,-1058.86 455.635,-977.773 329.293,-920.232 270.343,-896.226"/>
<polygon fill="#ff0000" stroke="#ff0000" points="271.394,-892.877 260.81,-892.398 268.786,-899.373 271.394,-892.877"/>
<text text-anchor="middle" x="552" y="-1029.66" font-family="Times New Roman,serif" font-size="14.00">!bottom_fall</text>
</g>
<!-- q15&#45;&gt;q14 -->
<g id="edge30" class="edge"><title>q15&#45;&gt;q14</title>
<path fill="none" stroke="#ff0000" d="M530.304,-1161.48C523.691,-1149.89 514.309,-1136 503,-1126.25 487.157,-1112.6 466.075,-1102.4 448.517,-1095.51"/>
<polygon fill="#ff0000" stroke="#ff0000" points="449.245,-1092.05 438.652,-1091.83 446.801,-1098.61 449.245,-1092.05"/>
<text text-anchor="middle" x="545.5" y="-1130.05" font-family="Times New Roman,serif" font-size="14.00">!infra_rise</text>
</g>
<!-- q15&#45;&gt;q15 -->
<g id="edge31" class="edge"><title>q15&#45;&gt;q15</title>
<path fill="none" stroke="#ff0000" d="M564.277,-1193.18C574.691,-1194.06 583.698,-1190.98 583.698,-1183.95 583.698,-1179.44 580.002,-1176.56 574.607,-1175.31"/>
<polygon fill="#ff0000" stroke="#ff0000" points="574.459,-1171.79 564.277,-1174.72 574.064,-1178.78 574.459,-1171.79"/>
<text text-anchor="middle" x="618.698" y="-1180.25" font-family="Times New Roman,serif" font-size="14.00">!remote_rise</text>
</g>
<!-- q16&#45;&gt;q10 -->
<g id="edge32" class="edge"><title>q16&#45;&gt;q10</title>
<path fill="none" stroke="#00cd00" d="M172.05,-501.052C119.04,-503.945 0,-518.835 0,-594.224 0,-883.762 0,-883.762 0,-883.762 0,-970.065 135.706,-982.098 201.74,-982.845"/>
<polygon fill="#00cd00" stroke="#00cd00" points="202.074,-986.346 212.085,-982.875 202.095,-979.346 202.074,-986.346"/>
<text text-anchor="middle" x="24" y="-728.469" font-family="Times New Roman,serif" font-size="14.00">mod_d1</text>
</g>
<!-- q16&#45;&gt;q16 -->
<g id="edge33" class="edge"><title>q16&#45;&gt;q16</title>
<path fill="none" stroke="#ff0000" d="M220.277,-508.607C230.691,-509.486 239.698,-506.41 239.698,-499.378 239.698,-494.874 236.002,-491.993 230.607,-490.735"/>
<polygon fill="#ff0000" stroke="#ff0000" points="230.459,-487.221 220.277,-490.15 230.064,-494.21 230.459,-487.221"/>
<text text-anchor="middle" x="274.698" y="-495.678" font-family="Times New Roman,serif" font-size="14.00">!remote_rise</text>
</g>
<!-- q16&#45;&gt;q17 -->
<g id="edge34" class="edge"><title>q16&#45;&gt;q17</title>
<path fill="none" stroke="#ff0000" d="M184.876,-521.515C169.931,-550.287 147.908,-603.356 160,-648.373 170.757,-688.422 196.836,-728.865 215.667,-754.46"/>
<polygon fill="#ff0000" stroke="#ff0000" points="212.938,-756.655 221.742,-762.549 218.535,-752.451 212.938,-756.655"/>
<text text-anchor="middle" x="187" y="-637.173" font-family="Times New Roman,serif" font-size="14.00">!infra_fall</text>
</g>
<!-- q4 -->
<g id="node14" class="node"><title>q4</title>
<ellipse fill="none" stroke="black" cx="331" cy="-595.224" rx="20.2975" ry="20.2975"/>
<text text-anchor="middle" x="331" y="-591.524" font-family="Times New Roman,serif" font-size="14.00">q4</text>
</g>
<!-- q16&#45;&gt;q4 -->
<g id="edge35" class="edge"><title>q16&#45;&gt;q4</title>
<path fill="none" stroke="#00cd00" d="M221.271,-504.075C245.651,-508.933 282.961,-519.641 307,-542.076 313.935,-548.548 319.031,-557.416 322.696,-566.004"/>
<polygon fill="#00cd00" stroke="#00cd00" points="319.449,-567.313 326.249,-575.438 326,-564.846 319.449,-567.313"/>
<text text-anchor="middle" x="348" y="-545.876" font-family="Times New Roman,serif" font-size="14.00">mod_dm1</text>
</g>
<!-- q17&#45;&gt;q11 -->
<g id="edge36" class="edge"><title>q17&#45;&gt;q11</title>
<path fill="none" stroke="#00cd00" d="M245.921,-805.535C248.014,-811.751 249.941,-818.583 251,-825.065 252.317,-833.124 251.505,-841.748 249.777,-849.777"/>
<polygon fill="#00cd00" stroke="#00cd00" points="246.368,-848.978 247.191,-859.541 253.135,-850.77 246.368,-848.978"/>
<text text-anchor="middle" x="276" y="-828.865" font-family="Times New Roman,serif" font-size="14.00">mod_d1</text>
</g>
<!-- q17&#45;&gt;q16 -->
<g id="edge37" class="edge"><title>q17&#45;&gt;q16</title>
<path fill="none" stroke="#ff0000" d="M233.658,-757.893C226.57,-708.1 210.006,-591.741 201.792,-534.044"/>
<polygon fill="#ff0000" stroke="#ff0000" points="205.235,-533.39 200.36,-523.983 198.305,-534.376 205.235,-533.39"/>
<text text-anchor="middle" x="246.5" y="-637.173" font-family="Times New Roman,serif" font-size="14.00">!infra_rise</text>
</g>
<!-- q17&#45;&gt;q17 -->
<g id="edge38" class="edge"><title>q17&#45;&gt;q17</title>
<path fill="none" stroke="#ff0000" d="M260.277,-791.595C270.691,-792.474 279.698,-789.398 279.698,-782.367 279.698,-777.862 276.002,-774.981 270.607,-773.723"/>
<polygon fill="#ff0000" stroke="#ff0000" points="270.459,-770.209 260.277,-773.138 270.064,-777.198 270.459,-770.209"/>
<text text-anchor="middle" x="314.698" y="-778.667" font-family="Times New Roman,serif" font-size="14.00">!remote_rise</text>
</g>
<!-- q5 -->
<g id="node15" class="node"><title>q5</title>
<ellipse fill="none" stroke="black" cx="387" cy="-686.521" rx="20.2975" ry="20.2975"/>
<text text-anchor="middle" x="387" y="-682.821" font-family="Times New Roman,serif" font-size="14.00">q5</text>
</g>
<!-- q17&#45;&gt;q5 -->
<g id="edge39" class="edge"><title>q17&#45;&gt;q5</title>
<path fill="none" stroke="#00cd00" d="M253.768,-764.162C266.256,-752.02 284.163,-735.968 302,-724.669 319.742,-713.431 341.464,-704.002 358.509,-697.456"/>
<polygon fill="#00cd00" stroke="#00cd00" points="359.789,-700.714 367.938,-693.943 357.346,-694.155 359.789,-700.714"/>
<text text-anchor="middle" x="331" y="-728.469" font-family="Times New Roman,serif" font-size="14.00">mod_dm1</text>
</g>
<!-- q2&#45;&gt;q12 -->
<g id="edge40" class="edge"><title>q2&#45;&gt;q12</title>
<path fill="none" stroke="#00cd00" d="M287.337,-398.692C269.678,-394.089 244.774,-384.47 233,-365.384 228.67,-358.365 227.49,-349.877 227.865,-341.631"/>
<polygon fill="#00cd00" stroke="#00cd00" points="231.371,-341.781 229.051,-331.443 224.418,-340.971 231.371,-341.781"/>
<text text-anchor="middle" x="257" y="-354.184" font-family="Times New Roman,serif" font-size="14.00">mod_d1</text>
</g>
<!-- q2&#45;&gt;q2 -->
<g id="edge41" class="edge"><title>q2&#45;&gt;q2</title>
<path fill="none" stroke="#ff0000" d="M325.843,-411.442C335.945,-412.786 345.148,-410.149 345.148,-403.532 345.148,-399.293 341.371,-396.688 336,-395.716"/>
<polygon fill="#ff0000" stroke="#ff0000" points="335.875,-392.215 325.843,-395.623 335.81,-399.214 335.875,-392.215"/>
<text text-anchor="middle" x="380.148" y="-399.832" font-family="Times New Roman,serif" font-size="14.00">!remote_rise</text>
</g>
<!-- q2&#45;&gt;q3 -->
<g id="edge42" class="edge"><title>q2&#45;&gt;q3</title>
<path fill="none" stroke="#ff0000" d="M322.737,-390.501C330.605,-383.816 339.755,-374.931 346,-365.384 354.543,-352.324 355.292,-347.754 358,-332.384 372.18,-251.898 382.736,-217.987 338,-149.593 333.707,-143.029 328.04,-136.779 322.361,-131.341"/>
<polygon fill="#ff0000" stroke="#ff0000" points="324.511,-128.567 314.737,-124.476 319.827,-133.769 324.511,-128.567"/>
<text text-anchor="middle" x="398" y="-253.788" font-family="Times New Roman,serif" font-size="14.00">!infra_fall</text>
</g>
<!-- q6 -->
<g id="node16" class="node"><title>q6</title>
<ellipse fill="none" stroke="black" cx="378" cy="-499.378" rx="20.2975" ry="20.2975"/>
<text text-anchor="middle" x="378" y="-495.678" font-family="Times New Roman,serif" font-size="14.00">q6</text>
</g>
<!-- q2&#45;&gt;q6 -->
<g id="edge43" class="edge"><title>q2&#45;&gt;q6</title>
<path fill="none" stroke="#00cd00" d="M324.38,-414.317C334.753,-420.905 347.516,-430.43 356,-441.681 362.322,-450.064 367.053,-460.491 370.474,-470.108"/>
<polygon fill="#00cd00" stroke="#00cd00" points="367.173,-471.277 373.577,-479.718 373.835,-469.126 367.173,-471.277"/>
<text text-anchor="middle" x="394" y="-445.481" font-family="Times New Roman,serif" font-size="14.00">mod_dm1</text>
</g>
<!-- q3&#45;&gt;q13 -->
<g id="edge44" class="edge"><title>q3&#45;&gt;q13</title>
<path fill="none" stroke="#00cd00" d="M279.337,-116.285C261.678,-120.888 236.774,-130.507 225,-149.593 220.67,-156.612 219.49,-165.1 219.865,-173.346"/>
<polygon fill="#00cd00" stroke="#00cd00" points="216.418,-174.006 221.051,-183.534 223.371,-173.196 216.418,-174.006"/>
<text text-anchor="middle" x="249" y="-153.393" font-family="Times New Roman,serif" font-size="14.00">mod_d1</text>
</g>
<!-- q3&#45;&gt;q2 -->
<g id="edge45" class="edge"><title>q3&#45;&gt;q2</title>
<path fill="none" stroke="#ff0000" d="M279.82,-117.885C262.095,-123.619 235.746,-134.003 217,-149.593 172.236,-186.82 137.548,-209.445 155,-264.988 171.305,-316.883 183.174,-330.607 225,-365.384 240.525,-378.293 261.263,-387.633 277.999,-393.719"/>
<polygon fill="#ff0000" stroke="#ff0000" points="277.226,-397.154 287.82,-397.091 279.499,-390.534 277.226,-397.154"/>
<text text-anchor="middle" x="183.5" y="-253.788" font-family="Times New Roman,serif" font-size="14.00">!infra_rise</text>
</g>
<!-- q3&#45;&gt;q3 -->
<g id="edge46" class="edge"><title>q3&#45;&gt;q3</title>
<path fill="none" stroke="#ff0000" d="M317.843,-119.354C327.945,-120.698 337.148,-118.062 337.148,-111.445 337.148,-107.206 333.371,-104.6 328,-103.628"/>
<polygon fill="#ff0000" stroke="#ff0000" points="327.875,-100.127 317.843,-103.535 327.81,-107.127 327.875,-100.127"/>
<text text-anchor="middle" x="372.148" y="-107.745" font-family="Times New Roman,serif" font-size="14.00">!remote_rise</text>
</g>
<!-- q7 -->
<g id="node17" class="node"><title>q7</title>
<ellipse fill="none" stroke="black" cx="370" cy="-20.1482" rx="20.2975" ry="20.2975"/>
<text text-anchor="middle" x="370" y="-16.4482" font-family="Times New Roman,serif" font-size="14.00">q7</text>
</g>
<!-- q3&#45;&gt;q7 -->
<g id="edge47" class="edge"><title>q3&#45;&gt;q7</title>
<path fill="none" stroke="#00cd00" d="M316.266,-100.572C326.596,-93.9516 339.353,-84.4228 348,-73.2964 353.487,-66.2361 357.853,-57.6059 361.202,-49.414"/>
<polygon fill="#00cd00" stroke="#00cd00" points="364.582,-50.3669 364.789,-39.7741 358.021,-47.9257 364.582,-50.3669"/>
<text text-anchor="middle" x="386" y="-62.0964" font-family="Times New Roman,serif" font-size="14.00">mod_dm1</text>
</g>
<!-- q4&#45;&gt;q16 -->
<g id="edge48" class="edge"><title>q4&#45;&gt;q16</title>
<path fill="none" stroke="#00cd00" d="M312.278,-587.054C296.307,-580.487 273.121,-569.859 255,-557.076 242.315,-548.128 229.799,-536.372 219.659,-525.886"/>
<polygon fill="#00cd00" stroke="#00cd00" points="222.134,-523.409 212.728,-518.534 217.041,-528.211 222.134,-523.409"/>
<text text-anchor="middle" x="279" y="-545.876" font-family="Times New Roman,serif" font-size="14.00">mod_d0</text>
</g>
<!-- q4&#45;&gt;q4 -->
<g id="edge49" class="edge"><title>q4&#45;&gt;q4</title>
<path fill="none" stroke="#ff0000" d="M349.843,-603.134C359.945,-604.478 369.148,-601.842 369.148,-595.224 369.148,-590.985 365.371,-588.38 360,-587.408"/>
<polygon fill="#ff0000" stroke="#ff0000" points="359.875,-583.907 349.843,-587.315 359.81,-590.906 359.875,-583.907"/>
<text text-anchor="middle" x="404.148" y="-591.524" font-family="Times New Roman,serif" font-size="14.00">!remote_rise</text>
</g>
<!-- q4&#45;&gt;q5 -->
<g id="edge50" class="edge"><title>q4&#45;&gt;q5</title>
<path fill="none" stroke="#ff0000" d="M320.324,-612.656C314.791,-623.413 310.43,-637.447 317,-648.373 325.815,-663.029 342.575,-672.211 357.485,-677.779"/>
<polygon fill="#ff0000" stroke="#ff0000" points="356.798,-681.239 367.392,-681.08 359.011,-674.598 356.798,-681.239"/>
<text text-anchor="middle" x="344" y="-637.173" font-family="Times New Roman,serif" font-size="14.00">!infra_fall</text>
</g>
<!-- q4&#45;&gt;q6 -->
<g id="edge51" class="edge"><title>q4&#45;&gt;q6</title>
<path fill="none" stroke="#ff0000" d="M349.809,-587.581C363.11,-581.778 379.952,-571.927 388,-557.076 392.878,-548.075 392.252,-537.201 389.745,-527.393"/>
<polygon fill="#ff0000" stroke="#ff0000" points="393.012,-526.12 386.604,-517.682 386.351,-528.274 393.012,-526.12"/>
<text text-anchor="middle" x="416" y="-545.876" font-family="Times New Roman,serif" font-size="14.00">!top_fall</text>
</g>
<!-- q4&#45;&gt;q8 -->
<g id="edge52" class="edge"><title>q4&#45;&gt;q8</title>
<path fill="none" stroke="#ff0000" d="M350.63,-589.698C416.449,-574.522 629.585,-525.377 708.371,-507.21"/>
<polygon fill="#ff0000" stroke="#ff0000" points="709.609,-510.517 718.567,-504.859 708.036,-503.696 709.609,-510.517"/>
<text text-anchor="middle" x="583.5" y="-545.876" font-family="Times New Roman,serif" font-size="14.00">!bottom_rise</text>
</g>
<!-- q5&#45;&gt;q17 -->
<g id="edge53" class="edge"><title>q5&#45;&gt;q17</title>
<path fill="none" stroke="#00cd00" d="M381.412,-705.947C377.169,-717.101 370.283,-730.831 360,-739.669 335.091,-761.077 298.706,-771.622 271.969,-776.736"/>
<polygon fill="#00cd00" stroke="#00cd00" points="271.13,-773.33 261.881,-778.498 272.334,-780.225 271.13,-773.33"/>
<text text-anchor="middle" x="397" y="-728.469" font-family="Times New Roman,serif" font-size="14.00">mod_d0</text>
</g>
<!-- q5&#45;&gt;q4 -->
<g id="edge54" class="edge"><title>q5&#45;&gt;q4</title>
<path fill="none" stroke="#ff0000" d="M383.601,-666.16C381.187,-655.867 377.238,-643.322 371,-633.373 366.708,-626.527 360.839,-620.122 354.919,-614.622"/>
<polygon fill="#ff0000" stroke="#ff0000" points="356.809,-611.628 346.958,-607.727 352.226,-616.92 356.809,-611.628"/>
<text text-anchor="middle" x="407.5" y="-637.173" font-family="Times New Roman,serif" font-size="14.00">!infra_rise</text>
</g>
<!-- q5&#45;&gt;q5 -->
<g id="edge55" class="edge"><title>q5&#45;&gt;q5</title>
<path fill="none" stroke="#ff0000" d="M405.843,-694.43C415.945,-695.774 425.148,-693.138 425.148,-686.521 425.148,-682.282 421.371,-679.676 416,-678.704"/>
<polygon fill="#ff0000" stroke="#ff0000" points="415.875,-675.203 405.843,-678.611 415.81,-682.203 415.875,-675.203"/>
<text text-anchor="middle" x="460.148" y="-682.821" font-family="Times New Roman,serif" font-size="14.00">!remote_rise</text>
</g>
<!-- q5&#45;&gt;q7 -->
<g id="edge56" class="edge"><title>q5&#45;&gt;q7</title>
<path fill="none" stroke="#ff0000" d="M404.622,-676.467C415.944,-669.924 430.296,-660.178 440,-648.373 478.361,-601.706 480.579,-582.739 495,-524.076 524.137,-405.554 528.455,-370.925 512,-249.988 499.909,-161.128 514.985,-119.029 449,-58.2964 434.778,-45.2068 415.121,-35.9397 398.972,-29.9351"/>
<polygon fill="#ff0000" stroke="#ff0000" points="400.046,-26.6029 389.451,-26.613 397.74,-33.2121 400.046,-26.6029"/>
<text text-anchor="middle" x="546" y="-354.184" font-family="Times New Roman,serif" font-size="14.00">!top_fall</text>
</g>
<!-- q5&#45;&gt;q9 -->
<g id="edge57" class="edge"><title>q5&#45;&gt;q9</title>
<path fill="none" stroke="#ff0000" d="M405.862,-678.796C424.195,-671.995 452.617,-660.745 476,-648.373 486.787,-642.665 487.767,-638.144 499,-633.373 542.976,-614.694 597.837,-604.637 631.105,-599.863"/>
<polygon fill="#ff0000" stroke="#ff0000" points="631.673,-603.318 641.106,-598.494 630.724,-596.383 631.673,-603.318"/>
<text text-anchor="middle" x="535.5" y="-637.173" font-family="Times New Roman,serif" font-size="14.00">!bottom_rise</text>
</g>
<!-- q6&#45;&gt;q2 -->
<g id="edge58" class="edge"><title>q6&#45;&gt;q2</title>
<path fill="none" stroke="#00cd00" d="M358.6,-493.462C340.867,-487.824 315.681,-476.67 304,-456.681 299.882,-449.634 299.031,-441.096 299.657,-432.988"/>
<polygon fill="#00cd00" stroke="#00cd00" points="303.121,-433.492 301.108,-423.09 296.195,-432.477 303.121,-433.492"/>
<text text-anchor="middle" x="328" y="-445.481" font-family="Times New Roman,serif" font-size="14.00">mod_d0</text>
</g>
<!-- q6&#45;&gt;q6 -->
<g id="edge59" class="edge"><title>q6&#45;&gt;q6</title>
<path fill="none" stroke="#ff0000" d="M396.449,-508.305C406.704,-509.971 416.148,-506.996 416.148,-499.378 416.148,-494.499 412.272,-491.524 406.79,-490.454"/>
<polygon fill="#ff0000" stroke="#ff0000" points="406.45,-486.954 396.449,-490.452 406.448,-493.954 406.45,-486.954"/>
<text text-anchor="middle" x="451.148" y="-495.678" font-family="Times New Roman,serif" font-size="14.00">!remote_rise</text>
</g>
<!-- q6&#45;&gt;q7 -->
<g id="edge60" class="edge"><title>q6&#45;&gt;q7</title>
<path fill="none" stroke="#ff0000" d="M359.928,-490.277C342.986,-482.432 317.167,-469.823 296,-456.681 174.941,-381.515 102.894,-392.357 39,-264.988 -29.4124,-128.614 247.21,-49.9725 340.354,-27.7343"/>
<polygon fill="#ff0000" stroke="#ff0000" points="341.335,-31.0994 350.275,-25.4144 339.741,-24.2833 341.335,-31.0994"/>
<text text-anchor="middle" x="66" y="-253.788" font-family="Times New Roman,serif" font-size="14.00">!infra_fall</text>
</g>
<!-- q7&#45;&gt;q3 -->
<g id="edge61" class="edge"><title>q7&#45;&gt;q3</title>
<path fill="none" stroke="#00cd00" d="M350.337,-24.9883C332.678,-29.5914 307.774,-39.2109 296,-58.2964 291.715,-65.2426 290.813,-73.75 291.446,-81.8625"/>
<polygon fill="#00cd00" stroke="#00cd00" points="287.989,-82.4073 292.929,-91.7797 294.912,-81.3721 287.989,-82.4073"/>
<text text-anchor="middle" x="320" y="-62.0964" font-family="Times New Roman,serif" font-size="14.00">mod_d0</text>
</g>
<!-- q7&#45;&gt;q6 -->
<g id="edge62" class="edge"><title>q7&#45;&gt;q6</title>
<path fill="none" stroke="#ff0000" d="M387.814,-29.956C412.472,-43.5505 454,-72.1333 454,-110.445 454,-404.532 454,-404.532 454,-404.532 454,-437.477 425.364,-465.337 403.248,-481.941"/>
<polygon fill="#ff0000" stroke="#ff0000" points="400.958,-479.276 394.867,-487.944 405.035,-484.966 400.958,-479.276"/>
<text text-anchor="middle" x="482.5" y="-253.788" font-family="Times New Roman,serif" font-size="14.00">!infra_rise</text>
</g>
<!-- q7&#45;&gt;q7 -->
<g id="edge63" class="edge"><title>q7&#45;&gt;q7</title>
<path fill="none" stroke="#ff0000" d="M388.843,-28.0578C398.945,-29.4019 408.148,-26.7654 408.148,-20.1482 408.148,-15.9091 404.371,-13.3036 399,-12.3318"/>
<polygon fill="#ff0000" stroke="#ff0000" points="398.875,-8.83058 388.843,-12.2386 398.81,-15.8303 398.875,-8.83058"/>
<text text-anchor="middle" x="443.148" y="-16.4482" font-family="Times New Roman,serif" font-size="14.00">!remote_rise</text>
</g>
<!-- q8&#45;&gt;q0 -->
<g id="edge64" class="edge"><title>q8&#45;&gt;q0</title>
<path fill="none" stroke="#00cd00" d="M757.946,-503.004C799.809,-509.75 893,-531.781 893,-594.224 893,-1284.8 893,-1284.8 893,-1284.8 893,-1359.34 780.999,-1376.84 722.569,-1380.9"/>
<polygon fill="#00cd00" stroke="#00cd00" points="722.095,-1377.42 712.321,-1381.51 722.512,-1384.41 722.095,-1377.42"/>
<text text-anchor="middle" x="917" y="-929.26" font-family="Times New Roman,serif" font-size="14.00">mod_d0</text>
</g>
<!-- q8&#45;&gt;q8 -->
<g id="edge65" class="edge"><title>q8&#45;&gt;q8</title>
<path fill="none" stroke="#ff0000" d="M756.449,-508.305C766.704,-509.971 776.148,-506.996 776.148,-499.378 776.148,-494.499 772.272,-491.524 766.79,-490.454"/>
<polygon fill="#ff0000" stroke="#ff0000" points="766.45,-486.954 756.449,-490.452 766.448,-493.954 766.45,-486.954"/>
<text text-anchor="middle" x="811.148" y="-495.678" font-family="Times New Roman,serif" font-size="14.00">!remote_rise</text>
</g>
<!-- q8&#45;&gt;q9 -->
<g id="edge66" class="edge"><title>q8&#45;&gt;q9</title>
<path fill="none" stroke="#ff0000" d="M718.526,-505.087C700.374,-510.616 674.309,-521.731 662,-542.076 657.861,-548.918 656.458,-557.244 656.397,-565.217"/>
<polygon fill="#ff0000" stroke="#ff0000" points="652.91,-565.554 656.971,-575.34 659.899,-565.158 652.91,-565.554"/>
<text text-anchor="middle" x="689" y="-545.876" font-family="Times New Roman,serif" font-size="14.00">!infra_fall</text>
</g>
<!-- q9&#45;&gt;q1 -->
<g id="edge67" class="edge"><title>q9&#45;&gt;q1</title>
<path fill="none" stroke="#00cd00" d="M678.359,-605.488C701.887,-619.45 741,-648.263 741,-685.521 741,-1184.95 741,-1184.95 741,-1184.95 741,-1218.73 711.996,-1247.12 688.7,-1264.47"/>
<polygon fill="#00cd00" stroke="#00cd00" points="686.554,-1261.7 680.44,-1270.36 690.615,-1267.41 686.554,-1261.7"/>
<text text-anchor="middle" x="765" y="-929.26" font-family="Times New Roman,serif" font-size="14.00">mod_d0</text>
</g>
<!-- q9&#45;&gt;q8 -->
<g id="edge68" class="edge"><title>q9&#45;&gt;q8</title>
<path fill="none" stroke="#ff0000" d="M678.963,-585.745C690.875,-579.329 706.083,-569.506 716,-557.076 722.549,-548.868 727.33,-538.48 730.728,-528.845"/>
<polygon fill="#ff0000" stroke="#ff0000" points="734.1,-529.79 733.785,-519.2 727.427,-527.676 734.1,-529.79"/>
<text text-anchor="middle" x="753.5" y="-545.876" font-family="Times New Roman,serif" font-size="14.00">!infra_rise</text>
</g>
<!-- q9&#45;&gt;q9 -->
<g id="edge69" class="edge"><title>q9&#45;&gt;q9</title>
<path fill="none" stroke="#ff0000" d="M679.843,-603.134C689.945,-604.478 699.148,-601.842 699.148,-595.224 699.148,-590.985 695.371,-588.38 690,-587.408"/>
<polygon fill="#ff0000" stroke="#ff0000" points="689.875,-583.907 679.843,-587.315 689.81,-590.906 689.875,-583.907"/>
<text text-anchor="middle" x="734.148" y="-591.524" font-family="Times New Roman,serif" font-size="14.00">!remote_rise</text>
</g>
</g>
</svg>
